# xmcd CD database file
#
# Track frame offsets:
#	150
#	12270
#	24982
#	40312
#	54167
#	72472
#	85072
#	101565
#	115915
#	125310
#	140575
#	150872
#
# Disc length: 2265 seconds
#
# Revision: 1
# Processed by: cddbd v1.5.1PL0 Copyright (c) Steve Scherf et al.
# Submitted via: CDex 1.60beta1
#
DISCID=8f08d70c
DTITLE=The Bluegrass Cardinals - What Have You Done For Him
DYEAR=0
DGENRE=Country
TTITLE0=I'm Going That Way
TTITLE1=Great Change
TTITLE2=I'll Be Looking For You
TTITLE3=Roses
TTITLE4=Let Me Walk Lord By Your Side
TTITLE5=Some Morning Fair
TTITLE6=What Have You Done For Him
TTITLE7=Gleams Of That Golden Morning
TTITLE8=Sind And Be Happy
TTITLE9=Give Mother My Crown
TTITLE10=Trouble The Waters
TTITLE11=God Put A Rainbow In The Clouds
EXTD=YEAR: 0
EXTT0=
EXTT1=
EXTT2=
EXTT3=
EXTT4=
EXTT5=
EXTT6=
EXTT7=
EXTT8=
EXTT9=
EXTT10=
EXTT11=
PLAYORDER=
